<svg width="24" height="24" viewBox="0 0 24 24" fill="none" xmlns="http://www.w3.org/2000/svg">
<path d="M5.45411 21.664L4.76611 20.95L8.21611 17.5H5.23411V16.5H9.90311V21.17H8.90311V18.213L5.45411 21.664ZM12.2891 21V20H17.3851C17.5644 20 17.7118 19.9423 17.8271 19.827C17.9424 19.7117 18.0001 19.5643 18.0001 19.385V8H14.0001V4H6.61611C6.43611 4 6.28845 4.05767 6.17311 4.173C6.05778 4.28833 6.00011 4.436 6.00011 4.616V14.116H5.00011V4.616C5.00011 4.168 5.15745 3.78667 5.47211 3.472C5.78678 3.15733 6.16811 3 6.61611 3H14.5001L19.0001 7.5V19.385C19.0001 19.8317 18.8428 20.2127 18.5281 20.528C18.2134 20.8427 17.8324 21 17.3851 21H12.2891Z" fill="black"/>
</svg>
